<svg width="246" height="259" viewBox="0 0 246 259" fill="none" xmlns="http://www.w3.org/2000/svg">
<rect width="246" height="259" fill="#DFD3F6"/>
<path d="M42.3902 105.815C52.1175 93.2979 77.287 75.8432 100.146 106.158C93.9388 115.259 73.6977 127.93 42.3902 105.815Z" fill="#41D9CC" stroke="#040222" stroke-width="4.56147" stroke-linecap="round" stroke-linejoin="round"/>
<path d="M93.7186 51.7615C108.086 58.4602 130.703 79.1154 106.233 108.146C95.9801 104.119 79.1227 87.2047 93.7186 51.7615Z" fill="#41D9CC" stroke="#040222" stroke-width="4.56147" stroke-linecap="round" stroke-linejoin="round"/>
<path d="M113 123.827L113.006 123.835C114.063 125.516 116.283 126.024 117.964 124.969C119.646 123.912 120.152 121.69 119.096 120.008L119.088 119.996L119.071 119.969L119.012 119.877C118.963 119.8 118.891 119.69 118.799 119.55C118.613 119.269 118.343 118.865 117.987 118.353C117.275 117.328 116.221 115.867 114.83 114.08C112.049 110.508 107.909 105.624 102.436 100.318C91.5043 89.7213 75.1555 77.3495 53.6053 70.494C51.7125 69.8919 49.6901 70.9381 49.0879 72.8309C48.4858 74.7236 49.5321 76.7461 51.4248 77.3482C71.6062 83.7683 87.0257 95.3974 97.4296 105.483C102.624 110.518 106.543 115.145 109.155 118.499C110.46 120.175 111.436 121.531 112.08 122.457C112.401 122.92 112.64 123.275 112.794 123.51C112.872 123.627 112.928 123.714 112.963 123.769L113 123.827Z" fill="white" stroke="#040222" stroke-width="4.56147" stroke-linecap="round" stroke-linejoin="round"/>
<circle r="23.9756" transform="matrix(-0.939693 -0.34202 -0.34202 0.939693 151.168 93.7904)" fill="#5D21D2" stroke="#040222" stroke-width="4.56147" stroke-linecap="round" stroke-linejoin="round"/>
<circle r="23.9756" transform="matrix(-0.939693 -0.34202 -0.34202 0.939693 84.4841 147.065)" fill="#5D21D2" stroke="#040222" stroke-width="4.56147" stroke-linecap="round" stroke-linejoin="round"/>
<circle r="23.9756" transform="matrix(-0.939693 -0.34202 -0.34202 0.939693 127.271 106.871)" fill="#5D21D2" stroke="#040222" stroke-width="4.56147" stroke-linecap="round" stroke-linejoin="round"/>
<circle r="23.9756" transform="matrix(-0.939693 -0.34202 -0.34202 0.939693 100.124 128.883)" fill="#5D21D2" stroke="#040222" stroke-width="4.56147" stroke-linecap="round" stroke-linejoin="round"/>
<circle r="23.9756" transform="matrix(-0.939693 -0.34202 -0.34202 0.939693 161.065 119.171)" fill="#5D21D2" stroke="#040222" stroke-width="4.56147" stroke-linecap="round" stroke-linejoin="round"/>
<circle r="23.9756" transform="matrix(-0.939693 -0.34202 -0.34202 0.939693 107.181 162.068)" fill="#5D21D2" stroke="#040222" stroke-width="4.56147" stroke-linecap="round" stroke-linejoin="round"/>
<circle r="23.9756" transform="matrix(-0.939693 -0.34202 -0.34202 0.939693 133.918 141.183)" fill="#5D21D2" stroke="#040222" stroke-width="4.56147" stroke-linecap="round" stroke-linejoin="round"/>
<circle r="23.9756" transform="matrix(-0.939693 -0.34202 -0.34202 0.939693 167.712 153.483)" fill="#5D21D2" stroke="#040222" stroke-width="4.56147" stroke-linecap="round" stroke-linejoin="round"/>
<circle r="23.9756" transform="matrix(-0.939693 -0.34202 -0.34202 0.939693 140.975 174.369)" fill="#5D21D2" stroke="#040222" stroke-width="4.56147" stroke-linecap="round" stroke-linejoin="round"/>
<circle r="23.9756" transform="matrix(-0.939693 -0.34202 -0.34202 0.939693 174.77 186.669)" fill="#5D21D2" stroke="#040222" stroke-width="4.56147" stroke-linecap="round" stroke-linejoin="round"/>
</svg>
